<mxfile host="app.diagrams.net" modified="2023-05-13T14:05:37.719Z" agent="Mozilla/5.0 (Windows NT 10.0; Win64; x64) AppleWebKit/537.36 (KHTML, like Gecko) Chrome/113.0.0.0 Safari/537.36 Edg/113.0.1774.35" version="21.3.0" etag="BM__8vrgVn-pxhY2KGV0" type="github">
  <diagram name="第 1 页" id="IuHrUega-Qjz1SbQe2NQ">
    <mxGraphModel>
      <root>
        <mxCell id="0" />
        <mxCell id="1" parent="0" />
      </root>
    </mxGraphModel>
  </diagram>
</mxfile>
